<?xml version="1.0" standalone="no"?>
<!DOCTYPE svg PUBLIC "-//W3C//DTD SVG 20010904//EN"
 "http://www.w3.org/TR/2001/REC-SVG-20010904/DTD/svg10.dtd">
<svg version="1.0" xmlns="http://www.w3.org/2000/svg"
 width="1024.000000pt" height="1024.000000pt" viewBox="0 0 1024.000000 1024.000000"
 preserveAspectRatio="xMidYMid meet">

<g transform="translate(0.000000,1024.000000) scale(0.100000,-0.100000)"
fill="#003932" stroke="none">
<path d="M4980 7742 c-335 -20 -698 -121 -1024 -284 -166 -83 -250 -135 -405
-251 -363 -271 -635 -624 -824 -1067 -131 -309 -193 -608 -204 -985 -13 -432
71 -793 281 -1220 296 -599 788 -1050 1393 -1279 139 -52 195 -58 237 -25 91
72 68 191 -49 251 -22 12 -55 33 -75 49 -19 15 -107 69 -195 120 -263 151
-441 284 -596 446 -360 377 -595 877 -650 1381 -15 142 -7 471 16 602 61 363
216 722 439 1020 63 85 295 328 369 388 339 274 747 456 1147 513 131 19 463
16 600 -5 315 -47 569 -139 843 -304 388 -233 674 -542 881 -951 175 -344 254
-695 243 -1071 -3 -96 -7 -184 -10 -195 -2 -11 -7 -47 -11 -80 -25 -224 -131
-542 -263 -785 -94 -175 -230 -356 -393 -523 -170 -177 -342 -302 -634 -464
-192 -107 -217 -123 -264 -167 -66 -61 -80 -127 -39 -187 47 -69 88 -73 236
-23 421 144 845 448 1148 824 304 378 518 913 564 1410 14 148 6 456 -15 611
-62 451 -302 988 -594 1324 -59 69 -224 235 -287 290 -320 279 -766 498 -1191
585 -196 39 -268 47 -458 49 -88 1 -162 3 -165 4 -3 1 -26 1 -51 -1z"/>
<path d="M5112 7008 c-47 -120 -116 -338 -133 -422 -13 -63 -22 -143 -23 -213
l-1 -112 -58 57 c-94 92 -185 238 -222 357 -12 39 -13 38 -20 -67 -8 -114 0
-308 16 -392 38 -202 110 -342 284 -546 59 -69 121 -144 138 -167 18 -23 35
-41 38 -40 4 1 26 27 50 58 24 32 82 101 128 155 107 127 154 197 202 298 78
167 104 329 94 576 -4 85 -8 156 -10 158 -1 1 -12 -26 -25 -60 -43 -120 -92
-199 -180 -291 l-85 -89 -1 109 c-2 137 -33 279 -112 500 -31 90 -59 163 -62
163 -3 0 -11 -15 -18 -32z"/>
<path d="M4406 6607 c-64 -152 -92 -236 -122 -362 -25 -107 -28 -142 -30 -320
-3 -280 25 -410 124 -575 76 -125 170 -201 329 -266 57 -23 122 -53 146 -67
50 -30 153 -131 164 -161 12 -35 19 89 11 184 -19 197 -65 302 -181 410 -239
223 -289 287 -341 441 -45 133 -57 245 -58 540 0 148 -1 269 -2 269 0 0 -19
-42 -40 -93z"/>
<path d="M5816 6525 c10 -266 -22 -532 -79 -674 -55 -136 -105 -198 -308 -382
-73 -67 -102 -101 -127 -150 -49 -97 -72 -204 -79 -364 l-6 -140 42 63 c66 96
139 147 293 206 195 73 301 174 384 366 131 302 94 780 -90 1170 l-35 75 5
-170z"/>
<path d="M6068 5393 c-27 -75 -88 -172 -145 -229 -63 -64 -136 -107 -273 -163
-135 -55 -174 -78 -232 -138 -122 -126 -189 -333 -171 -530 l6 -62 28 43 c65
98 158 163 295 207 229 72 367 212 457 465 39 108 58 234 55 352 l-3 103 -17
-48z"/>
<path d="M4170 5346 c0 -384 203 -723 488 -817 37 -12 98 -38 137 -58 72 -37
190 -138 200 -172 4 -10 11 -19 17 -19 16 0 3 228 -17 305 -36 140 -129 277
-234 344 -27 18 -95 50 -152 73 -196 77 -308 174 -392 337 l-47 92 0 -85z"/>
<path d="M4163 4700 c11 -228 81 -409 213 -550 92 -97 157 -141 274 -184 50
-19 113 -48 140 -66 52 -33 140 -124 140 -144 0 -6 5 -4 10 4 15 23 12 277 -4
337 -46 171 -150 270 -363 347 -195 69 -307 160 -384 311 l-31 60 5 -115z"/>
<path d="M6087 4783 c-8 -39 -78 -144 -128 -193 -63 -61 -162 -116 -288 -160
-62 -21 -131 -50 -155 -64 -91 -53 -171 -172 -201 -298 -15 -65 -19 -261 -6
-308 7 -24 7 -24 20 8 28 66 136 145 258 186 214 73 325 170 423 371 27 55 59
138 70 185 23 98 39 300 23 300 -6 0 -13 -12 -16 -27z"/>
<path d="M5121 4250 c-17 -76 -57 -335 -71 -455 -6 -55 -16 -131 -21 -170 -6
-38 -13 -307 -16 -597 l-6 -528 116 0 115 0 4 63 c7 122 -2 885 -12 1042 -12
177 -50 472 -78 610 l-19 90 -12 -55z"/>
<path d="M4156 4150 c8 -122 34 -224 84 -328 94 -197 219 -323 415 -419 52
-25 101 -59 144 -100 36 -35 67 -63 68 -63 8 0 1 275 -7 321 -29 154 -140 267
-320 324 -158 50 -275 145 -349 282 l-42 78 7 -95z"/>
<path d="M6096 4225 c-20 -60 -67 -136 -118 -191 -64 -68 -134 -109 -291 -168
-119 -46 -180 -87 -224 -150 -52 -76 -65 -132 -70 -304 -6 -182 -2 -200 32
-149 30 44 124 111 224 161 78 39 137 78 187 123 94 86 191 248 233 389 30
101 55 375 27 289z"/>
</g>
</svg>
